<?xml version="1.0" encoding="UTF-8" standalone="no"?>
<!DOCTYPE svg PUBLIC "-//W3C//DTD SVG 20010904//EN"
              "http://www.w3.org/TR/2001/REC-SVG-20010904/DTD/svg10.dtd">

<svg xmlns="http://www.w3.org/2000/svg"
     width="6.24444in" height="13.7444in"
     viewBox="0 0 562 1237">
  <path id="ghost"
        fill="#ffffff" stroke="none"
        d="M 278.00,0.42
           C 278.00,0.42 295.00,1.00 295.00,1.00
             311.56,1.03 327.63,2.23 344.00,4.92
             418.90,17.23 491.84,52.36 530.14,121.00
             548.24,153.44 554.94,186.20 555.00,223.00
             555.00,223.00 556.00,240.00 556.00,240.00
             556.00,240.00 556.00,273.00 556.00,273.00
             556.00,273.00 557.00,289.00 557.00,289.00
             557.00,289.00 557.00,319.00 557.00,319.00
             557.00,319.00 558.00,336.00 558.00,336.00
             558.00,336.00 558.00,390.00 558.00,390.00
             558.00,390.00 559.00,405.00 559.00,405.00
             559.00,405.00 559.00,444.00 559.00,444.00
             559.00,444.00 560.00,461.00 560.00,461.00
             560.00,461.00 560.00,484.00 560.00,484.00
             560.00,484.00 561.00,501.00 561.00,501.00
             561.00,501.00 561.00,586.00 561.00,586.00
             561.00,586.00 562.00,601.00 562.00,601.00
             562.00,601.00 562.00,773.00 562.00,773.00
             562.00,773.00 562.00,868.00 562.00,868.00
             562.00,868.00 561.00,883.00 561.00,883.00
             561.00,883.00 561.00,913.00 561.00,913.00
             560.98,928.82 555.35,964.80 552.00,981.00
             549.09,995.07 544.32,1013.08 538.22,1026.00
             529.14,1045.24 513.45,1066.00 490.00,1066.00
             485.20,1066.00 481.43,1065.72 477.00,1063.60
             470.39,1060.43 463.17,1053.53 458.43,1048.00
             429.29,1013.98 403.09,950.21 378.80,910.00
             369.58,894.74 349.13,866.17 328.00,875.91
             324.09,877.72 320.08,881.04 317.01,884.04
             300.44,900.26 289.01,932.68 283.12,955.00
             274.57,987.37 270.33,1016.79 267.17,1050.00
             267.17,1050.00 265.91,1074.00 265.91,1074.00
             265.91,1074.00 261.13,1131.00 261.13,1131.00
             256.96,1161.07 249.19,1192.73 220.00,1208.11
             215.38,1210.54 208.15,1212.70 203.00,1213.79
             198.99,1214.64 184.92,1216.11 181.00,1215.96
             171.03,1215.57 160.29,1214.31 151.00,1210.55
             138.62,1205.53 129.29,1197.31 120.00,1188.00
             97.23,1165.19 82.81,1135.61 71.00,1106.00
             46.28,1044.01 31.48,965.18 21.73,899.00
             15.42,856.17 10.86,813.14 7.91,770.00
             7.91,770.00 5.00,723.00 5.00,723.00
             5.00,723.00 4.00,708.00 4.00,708.00
             4.00,708.00 2.00,659.00 2.00,659.00
             2.00,659.00 1.00,644.00 1.00,644.00
             1.00,644.00 1.00,606.00 1.00,606.00
             1.00,606.00 0.00,589.00 0.00,589.00
             0.00,589.00 0.00,385.00 0.00,385.00
             0.00,385.00 1.00,370.00 1.00,370.00
             1.00,370.00 1.00,336.00 1.00,336.00
             1.00,336.00 3.00,302.00 3.00,302.00
             3.00,302.00 5.00,253.00 5.00,253.00
             5.00,253.00 6.00,243.00 6.00,243.00
             6.00,243.00 6.00,233.00 6.00,233.00
             6.00,233.00 7.00,226.00 7.00,226.00
             7.00,226.00 7.00,217.00 7.00,217.00
             8.41,197.73 10.77,178.47 16.74,160.00
             26.47,129.97 43.88,102.46 66.17,80.17
             106.11,40.23 161.98,16.35 217.00,6.42
             228.42,4.36 250.87,1.02 262.00,1.00
             267.39,0.99 272.65,1.18 278.00,0.42 Z
           M 168.00,200.55
           C 157.42,204.86 150.07,222.82 146.00,233.00
             146.00,233.00 130.85,279.00 130.85,279.00
             127.66,290.85 122.96,311.02 125.52,323.00
             126.49,327.58 129.11,332.83 131.26,337.00
             137.33,348.78 146.03,361.06 156.00,369.82
             160.51,373.78 166.68,378.18 173.00,376.35
             181.39,373.92 191.75,361.90 196.84,355.00
             205.46,343.32 214.32,328.96 213.99,314.00
             213.83,307.06 210.99,295.07 209.42,288.00
             206.37,274.19 202.20,258.27 197.41,245.00
             193.43,233.95 187.81,219.82 181.45,210.00
             178.11,204.84 174.62,200.07 168.00,200.55 Z
           M 390.00,200.64
           C 380.75,205.36 373.49,222.48 369.60,232.00
             362.77,248.75 357.98,265.49 353.63,283.00
             351.31,292.32 346.99,310.91 348.30,320.00
             348.92,324.34 350.94,329.92 352.60,334.00
             357.34,345.59 369.32,362.41 379.00,370.19
             384.03,374.24 389.20,378.38 396.00,376.15
             403.86,373.57 413.79,362.51 418.76,356.00
             427.65,344.39 436.98,330.02 437.00,315.00
             437.03,293.31 428.26,267.59 421.33,247.00
             417.45,235.45 411.25,220.01 404.48,210.00
             400.85,204.63 397.02,199.82 390.00,200.64 Z
           M 336.00,917.87
           C 344.31,918.74 349.83,927.64 354.28,934.00
             354.28,934.00 386.00,988.00 386.00,988.00
             386.00,988.00 433.01,1072.00 433.01,1072.00
             444.15,1090.95 455.96,1102.61 456.00,1126.00
             456.02,1137.84 456.78,1144.33 453.28,1156.00
             446.86,1177.39 430.82,1192.87 409.00,1198.10
             401.14,1199.99 392.06,1200.09 384.00,1200.00
             375.02,1199.89 362.52,1197.87 354.00,1195.00
             330.95,1187.22 312.80,1174.14 303.45,1151.00
             297.98,1137.46 299.00,1118.59 299.00,1104.00
             299.00,1071.21 300.87,1038.49 305.58,1006.00
             308.42,986.41 313.36,955.99 320.60,938.00
             323.61,930.53 327.22,919.71 336.00,917.87 Z
           M 27.00,1053.00
           C 27.00,1053.00 29.00,1053.00 29.00,1053.00
             35.41,1064.31 43.14,1090.53 47.67,1104.00
             55.97,1128.68 65.56,1152.99 77.78,1176.00
             82.49,1184.86 88.29,1193.08 94.42,1201.00
             98.99,1206.89 104.63,1214.09 103.89,1222.00
             102.43,1237.68 82.39,1237.13 71.00,1237.00
             45.63,1236.70 39.41,1217.76 34.65,1197.00
             29.93,1176.42 26.03,1140.15 26.00,1119.00
             26.00,1119.00 25.00,1102.00 25.00,1102.00
             24.98,1088.05 23.61,1065.79 27.00,1053.00 Z" />
</svg>
