<?xml version="1.0" standalone="no"?>
<!DOCTYPE svg PUBLIC "-//W3C//DTD SVG 20010904//EN"
 "http://www.w3.org/TR/2001/REC-SVG-20010904/DTD/svg10.dtd">
<svg version="1.0" xmlns="http://www.w3.org/2000/svg"
 width="1024.000000pt" height="1024.000000pt" viewBox="0 0 1024.000000 1024.000000"
 preserveAspectRatio="xMidYMid meet">

<g transform="translate(0.000000,1024.000000) scale(0.100000,-0.100000)"
fill="#ffffff" stroke="none">
<path d="M4940 10059 c-1073 -83 -1850 -671 -1985 -1504 -8 -49 -19 -178 -25
-285 -5 -107 -12 -220 -15 -250 -2 -30 -7 -140 -11 -245 -3 -104 -7 -200 -9
-212 -26 -168 -26 -2574 0 -2853 2 -25 7 -115 10 -200 44 -1203 223 -2372 475
-3105 135 -391 280 -654 460 -836 98 -99 170 -148 276 -189 79 -31 265 -39
372 -16 162 34 283 126 359 272 76 146 113 322 133 634 5 91 15 242 21 335 41
657 207 1224 413 1413 128 117 264 86 404 -91 72 -90 112 -160 283 -488 253
-488 350 -648 469 -773 86 -90 144 -121 225 -120 115 1 250 96 333 235 110
186 185 496 224 924 20 218 14 3231 -7 3700 -2 50 -7 302 -10 560 -3 259 -7
547 -10 640 -3 94 -7 314 -10 490 -6 336 -14 434 -45 578 -161 737 -827 1257
-1763 1372 -151 19 -424 25 -567 14z m-655 -1611 c45 -39 130 -210 180 -363
63 -193 125 -463 125 -546 0 -157 -245 -489 -360 -489 -82 0 -239 170 -328
358 -33 70 -37 85 -36 157 1 159 119 559 226 767 42 81 104 148 138 148 10 0
35 -14 55 -32z m1784 -3 c83 -75 191 -340 272 -670 22 -89 33 -155 33 -210 1
-72 -3 -87 -36 -157 -89 -188 -246 -358 -328 -358 -88 0 -268 205 -335 383
-29 79 -31 114 -9 228 79 424 245 819 344 819 11 0 38 -16 59 -35z"/>
<path d="M5518 2703 c-93 -100 -174 -425 -223 -898 -34 -330 -39 -763 -11
-875 54 -209 226 -363 481 -431 96 -25 280 -30 365 -10 243 59 389 253 390
519 0 134 -23 225 -79 307 -77 113 -196 317 -389 671 -268 491 -366 650 -438
714 -43 37 -63 38 -96 3z"/>
<path d="M3083 1613 c-14 -48 -6 -500 11 -691 25 -283 69 -510 115 -600 49
-96 139 -145 266 -146 95 -1 162 21 200 65 46 55 31 118 -50 214 -136 161
-251 405 -405 865 -115 343 -120 354 -137 293z"/>
</g>
</svg>
