<?xml version="1.0" encoding="UTF-8" standalone="no"?>
<!DOCTYPE svg PUBLIC "-//W3C//DTD SVG 20010904//EN"
              "http://www.w3.org/TR/2001/REC-SVG-20010904/DTD/svg10.dtd">

<svg xmlns="http://www.w3.org/2000/svg"
     width="7.11111in" height="7.11111in"
     viewBox="0 0 512 512">

    <path id="body"
        fill="#ffffff" stroke="none"
        d="M 188.00,8.00
           C 188.00,8.00 324.00,8.00 324.00,8.00
             324.00,8.00 324.00,31.00 324.00,31.00
             324.00,31.00 346.00,31.00 346.00,31.00
             346.00,31.00 346.00,53.00 346.00,53.00
             346.00,53.00 369.00,53.00 369.00,53.00
             369.00,53.00 369.00,391.00 369.00,391.00
             369.00,391.00 346.00,391.00 346.00,391.00
             346.00,391.00 346.00,414.00 346.00,414.00
             346.00,414.00 324.00,414.00 324.00,414.00
             324.00,414.00 324.00,391.00 324.00,391.00
             324.00,391.00 301.00,391.00 301.00,391.00
             301.00,391.00 301.00,369.00 301.00,369.00
             301.00,369.00 279.00,369.00 279.00,369.00
             279.00,369.00 279.00,391.00 279.00,391.00
             279.00,391.00 256.00,391.00 256.00,391.00
             256.00,391.00 256.00,459.00 256.00,459.00
             256.00,459.00 233.00,459.00 233.00,459.00
             233.00,459.00 233.00,504.00 233.00,504.00
             233.00,504.00 211.00,504.00 211.00,504.00
             211.00,504.00 211.00,481.00 211.00,481.00
             211.00,481.00 188.00,481.00 188.00,481.00
             188.00,481.00 188.00,459.00 188.00,459.00
             188.00,459.00 166.00,459.00 166.00,459.00
             166.00,459.00 166.00,414.00 166.00,414.00
             166.00,414.00 143.00,414.00 143.00,414.00
             143.00,414.00 143.00,53.00 143.00,53.00
             143.00,53.00 166.00,53.00 166.00,53.00
             166.00,53.00 166.00,31.00 166.00,31.00
             166.00,31.00 188.00,31.00 188.00,31.00
             188.00,31.00 188.00,8.00 188.00,8.00 Z
           M 233.00,76.00
           C 233.00,76.00 211.00,76.00 211.00,76.00
             211.00,76.00 211.00,98.00 211.00,98.00
             211.00,98.00 188.00,98.00 188.00,98.00
             188.00,98.00 188.00,188.00 188.00,188.00
             188.00,188.00 211.00,188.00 211.00,188.00
             211.00,188.00 211.00,166.00 211.00,166.00
             211.00,166.00 233.00,166.00 233.00,166.00
             233.00,166.00 233.00,76.00 233.00,76.00 Z
           M 301.00,76.00
           C 301.00,76.00 279.00,76.00 279.00,76.00
             279.00,76.00 279.00,166.00 279.00,166.00
             279.00,166.00 301.00,166.00 301.00,166.00
             301.00,166.00 301.00,188.00 301.00,188.00
             301.00,188.00 324.00,188.00 324.00,188.00
             324.00,188.00 324.00,98.00 324.00,98.00
             324.00,98.00 301.00,98.00 301.00,98.00
             301.00,98.00 301.00,76.00 301.00,76.00 Z" />

    <path id="body small"
        fill="#ffffff" stroke="none"
        d="M 143.00,481.00
           C 143.00,481.00 166.00,481.00 166.00,481.00
             166.00,481.00 166.00,504.00 166.00,504.00
             166.00,504.00 143.00,504.00 143.00,504.00
             143.00,504.00 143.00,481.00 143.00,481.00 Z" />

    <path id="body big"
        fill="#ffffff" stroke="none"
        d="M 279.00,414.00
           C 279.00,414.00 301.00,414.00 301.00,414.00
             301.00,414.00 301.00,436.00 301.00,436.00
             301.00,436.00 324.00,436.00 324.00,436.00
             324.00,436.00 324.00,481.00 324.00,481.00
             324.00,481.00 279.00,481.00 279.00,481.00
             279.00,481.00 279.00,414.00 279.00,414.00 Z" />
</svg>
