<svg width="300" height="300" viewBox="0 0 300 300" fill="none" xmlns="http://www.w3.org/2000/svg">
<rect width="300" height="300" rx="50" fill="#0F392C"/>
<path d="M37.3348 239V233.645L42.4348 232.115C45.8348 230.925 48.0448 229.395 49.0648 227.525C50.2548 225.485 50.8498 222.68 50.8498 219.11V90.335C50.8498 86.765 50.2548 84.045 49.0648 82.175C48.0448 80.135 45.8348 78.52 42.4348 77.33L37.3348 75.8V70.445H101.085V75.8L95.9848 77.33C92.7548 78.52 90.5448 80.135 89.3548 82.175C88.1648 84.045 87.5698 86.765 87.5698 90.335V219.11C87.5698 222.68 88.1648 225.485 89.3548 227.525C90.5448 229.395 92.7548 230.925 95.9848 232.115L101.085 233.645V239H37.3348ZM122.989 239V233.645L127.069 232.37C130.639 231.01 133.019 229.225 134.209 227.015C135.569 224.805 136.249 221.83 136.249 218.09C136.419 208.4 136.504 198.71 136.504 189.02C136.504 179.16 136.504 169.3 136.504 159.44V150.26C136.504 140.4 136.419 130.625 136.249 120.935C136.249 111.075 136.249 101.215 136.249 91.355C136.249 87.275 135.654 84.215 134.464 82.175C133.274 79.965 130.809 78.265 127.069 77.075L122.989 75.8V70.445H194.899C215.299 70.445 230.089 74.27 239.269 81.92C248.449 89.4 253.039 98.92 253.039 110.48C253.039 119.32 249.809 127.31 243.349 134.45C236.889 141.42 225.584 146.435 209.434 149.495C228.134 151.535 241.649 156.38 249.979 164.03C258.309 171.68 262.474 181.03 262.474 192.08C262.474 197.52 261.284 203.045 258.904 208.655C256.524 214.095 252.444 219.11 246.664 223.7C241.054 228.29 233.404 232.03 223.714 234.92C214.024 237.64 201.784 239 186.994 239H122.989ZM172.714 147.71H184.699C196.259 147.71 204.589 145.16 209.689 140.06C214.959 134.79 217.594 125.865 217.594 113.285C217.594 100.195 215.214 91.015 210.454 85.745C205.694 80.475 198.214 77.84 188.014 77.84H172.714V147.71ZM172.714 231.605H186.739C199.489 231.605 209.009 228.46 215.299 222.17C221.589 215.88 224.734 205.765 224.734 191.825C224.734 178.395 221.674 168.96 215.554 163.52C209.604 157.91 199.744 155.105 185.974 155.105H172.714V231.605Z" fill="white"/>
</svg>
